<svg id="Layer_1" data-name="Layer 1" xmlns="http://www.w3.org/2000/svg" viewBox="0 0 1000 1000"><defs><style>.cls-1{fill:#3c5ce8;}</style></defs><path class="cls-1" d="M298.25,406.09C241,493.76,164.59,534.8,130.8,550.47q-1.43-34.74-2.86-69.48a354.25,354.25,0,0,0,117.94-119.8,355,355,0,0,0,49.58-176.77l66.83-27.77C364.82,192,367.93,299.46,298.25,406.09Z"/><path class="cls-1" d="M148.83,623.67a358.08,358.08,0,0,0,68.22,115.2c37.8-24.93,146.21-89.28,297.14-84,131.27,4.54,224.84,59.27,263.52,85a294.23,294.23,0,0,0,69.72-114.7C808.24,606.76,692.2,546.13,620,408.6c-60.17-114.6-57.94-221.74-54.39-267a313.89,313.89,0,0,0-134-.5c3.78,44.09,7.2,153.78-55.38,270.45C303.31,547.57,187.25,606.22,148.83,623.67Z"/><path class="cls-1" d="M271.08,789.69a210.43,210.43,0,0,0,61.71,39.53A360.13,360.13,0,0,1,480,789.69c86.62-4.13,152.29,24.47,182.32,39.94a195.61,195.61,0,0,0,62.93-38.32c-31.67-20.42-116.17-68.93-233.95-67.37C381.88,725.4,303.22,769.28,271.08,789.69Z"/><path class="cls-1" d="M637.79,157.37c-2.95,37.08-4.81,124.17,43.75,217.56C740,487.29,834.2,537.29,866.27,552.58L871,480.09c-26.72-15.43-86.16-54.57-127.67-130.33a339.27,339.27,0,0,1-41.48-161.15q-15.84-8.45-33-16.82Q653,164.1,637.79,157.37Z"/></svg>